<?xml version="1.0" encoding="utf-8"?>
<!-- Generator: Adobe Illustrator 27.6.1, SVG Export Plug-In . SVG Version: 6.00 Build 0)  -->
<svg version="1.1" id="Livello_1" xmlns="http://www.w3.org/2000/svg" xmlns:xlink="http://www.w3.org/1999/xlink" x="0px" y="0px"
	 viewBox="0 0 300 150" style="enable-background:new 0 0 300 150;" xml:space="preserve">
<style type="text/css">
	.st0{fill:#FFFFFF;}
</style>
<g>
	<g>
		<path class="st0" d="M201.5,113.3h-103c-0.6,0-1-0.4-1-1V44.8c0-0.6,0.4-1,1-1h103c0.6,0,1,0.4,1,1v67.5
			C202.5,112.9,202.1,113.3,201.5,113.3z M99.5,111.3h101V45.8h-101V111.3z"/>
	</g>
	<g>
		<path class="st0" d="M211.6,123.8H88.4c-0.6,0-1-0.4-1-1s0.4-1,1-1h123.3c0.6,0,1,0.4,1,1S212.2,123.8,211.6,123.8z"/>
	</g>
</g>
</svg>
