<?xml version="1.0" encoding="utf-8"?>
<!-- Generator: Adobe Illustrator 27.6.1, SVG Export Plug-In . SVG Version: 6.00 Build 0)  -->
<svg version="1.1" id="Livello_1" xmlns="http://www.w3.org/2000/svg" xmlns:xlink="http://www.w3.org/1999/xlink" x="0px" y="0px"
	 viewBox="0 0 300 150" style="enable-background:new 0 0 300 150;" xml:space="preserve">
<style type="text/css">
	.st0{fill:#FFFFFF;}
</style>
<g>
	<ellipse transform="matrix(0.9732 -0.2298 0.2298 0.9732 -11.2304 39.8956)" class="st0" cx="165.7" cy="68.2" rx="5.9" ry="5.9"/>
	<polygon class="st0" points="137.8,62 133.5,62 133.5,66.6 128.9,66.6 128.9,70.9 133.5,70.9 133.5,75.5 137.8,75.5 137.8,70.9 
		142.4,70.9 142.4,66.6 137.8,66.6 	"/>
	<path class="st0" d="M189.4,94.1c0,0,0-0.1,0-0.1l-7.1-32.3c-0.4-1.9-0.9-3.5-1.5-5c-2-5.2-4.3-6.9-9.1-6.9h-43.3
		c-4.8,0-7.1,1.7-9.1,6.9c-0.6,1.5-1.1,3.1-1.5,5l-7.1,32.3c0,0,0,0.1,0,0.1c-0.9,4.7,2.1,9.3,6.6,10.1c0.4,0.1,0.8,0.1,1.1,0.1
		c4.4,0,9.4-4.3,11.7-7.5l5.8-7.8c0.6-0.7,1.4-1.2,2.3-1.2h23.6c0.9,0,1.8,0.4,2.3,1.2l5.8,7.8c2.4,3.5,8.2,8.2,12.8,7.4
		C187.3,103.3,190.2,98.8,189.4,94.1z M182.4,102.2c-3.3,0.6-8.3-3-10.8-6.6l-6.1-8.2c-0.7-1-1.9-1.6-3.1-1.6h-24.6
		c-1.2,0-2.4,0.6-3.1,1.6l-6.1,8.2c-2.5,3.6-7.6,7.2-10.8,6.6c-3.4-0.6-5.7-4.2-5-7.8c0,0,0,0,0-0.1l7.1-32.2
		c0.4-1.8,0.8-3.3,1.4-4.7c1.7-4.4,3.3-5.7,7.3-5.7h43.3c3.9,0,5.6,1.3,7.3,5.7c0.5,1.4,1,2.9,1.4,4.7l7.1,32.2c0,0,0,0.1,0,0.1
		C188.1,98,185.8,101.5,182.4,102.2z"/>
</g>
</svg>
