<?xml version="1.0" encoding="utf-8"?>
<!-- Generator: Adobe Illustrator 27.6.1, SVG Export Plug-In . SVG Version: 6.00 Build 0)  -->
<svg version="1.1" id="Livello_1" xmlns="http://www.w3.org/2000/svg" xmlns:xlink="http://www.w3.org/1999/xlink" x="0px" y="0px"
	 viewBox="0 0 300 150" style="enable-background:new 0 0 300 150;" xml:space="preserve">
<style type="text/css">
	.st0{fill:#FFFFFF;}
</style>
<g>
	<path class="st0" d="M233.4,123.9H66.6c-0.6,0-1-0.4-1-1V17.4c0-0.6,0.4-1,1-1h166.7c0.6,0,1,0.4,1,1v105.5
		C234.4,123.4,233.9,123.9,233.4,123.9z M67.6,121.9h164.7V18.4H67.6V121.9z"/>
</g>
<g>
	<path class="st0" d="M181.5,133.6h-63c-0.6,0-1-0.4-1-1s0.4-1,1-1h63c0.6,0,1,0.4,1,1S182,133.6,181.5,133.6z"/>
</g>
</svg>
