<?xml version="1.0" encoding="utf-8"?>
<!-- Generator: Adobe Illustrator 27.6.1, SVG Export Plug-In . SVG Version: 6.00 Build 0)  -->
<svg version="1.1" id="Livello_1" xmlns="http://www.w3.org/2000/svg" xmlns:xlink="http://www.w3.org/1999/xlink" x="0px" y="0px"
	 viewBox="0 0 462.9 115.4" style="enable-background:new 0 0 462.9 115.4;" xml:space="preserve">
<style type="text/css">
	.st0{fill:#FFFFFF;}
	.st1{fill-rule:evenodd;clip-rule:evenodd;fill:#FFFFFF;}
	.st2{fill-rule:evenodd;clip-rule:evenodd;fill:url(#path3050_00000173131481753914324200000006611591768719546752_);}
	.st3{fill:#1CE783;}
	.st4{fill-rule:evenodd;clip-rule:evenodd;fill:#F9B300;}
</style>
<g>
	<g>
		<g>
			<path id="path2" class="st0" d="M243.9,39c-1.5,0.3-5.4,0.5-5.4,0.5L238,41c0,0,2-0.2,3.3,0c0,0,0.4,0,0.5,0.5c0,0.6,0,1.2,0,1.2
				s0,0.3-0.5,0.4c-0.5,0.1-4.2,0.3-4.2,0.3l-0.6,2c0,0-0.3,0.4,0.3,0.3c0.4-0.1,4.3-0.9,4.8-0.8c0.5,0.1,1.1,0.9,0.9,1.5
				c-0.2,0.8-4,3.3-6.3,3.2c0,0-1.2,0.1-2.2-1.6c-1-1.6,0.3-4.6,0.3-4.6s-0.6-1.5-0.2-2c0,0,0.3-0.3,1-0.3l0.9-2
				c0,0-1.1,0.1-1.7-0.8c-0.6-0.8-0.6-1.1-0.2-1.3c0.5-0.3,4.9-1,7.9-0.9c0,0,1.1-0.2,2,1.8C244.2,38,244.7,38.8,243.9,39
				 M232.4,46.6c-0.3,0.9-1.5,2-2.6,1.3c-1.3-0.6-3.3-4.8-3.3-4.8s-0.8-1.5-0.9-1.5c0,0-0.2-0.3-0.3,1.5c-0.1,1.7,0,5-0.7,5.5
				c-0.6,0.5-1.4,0.3-1.8-0.3c-0.3-0.6-0.5-2-0.3-4.6c0.3-2.6,0.8-5.2,1.5-6.1c0.8-0.9,1.4-0.3,1.6,0c0,0,0.9,0.9,2.6,3.6l0.3,0.5
				c0,0,1.5,2.6,1.6,2.5c0,0,0.1,0.2,0.3,0c0.2,0,0.1-0.9,0.1-0.9s-0.3-2.7-1.6-7.3c0,0-0.2-0.6-0.1-1.2c0.1-0.5,0.7-0.3,0.7-0.3
				s2.1,1,3.1,4.5C233.5,42.5,232.8,45.6,232.4,46.6 M222.1,37.7c-0.2,0.3-0.3,0.9-1.2,1c0,0-8.4,0.6-8.9,1.2c0,0-0.3,0.3,0.2,0.4
				c0.5,0.1,2.4,0.3,3.3,0.4c1,0,4.3,0,5.5,1.5c0,0,0.7,0.7,0.7,2.3c0,1.7-0.3,2.2-0.9,2.8c-0.7,0.6-6.4,3.2-10.1-0.9
				c0,0-1.7-2,0.6-3.4c0,0,1.6-1,5.8,0.2c0,0,1.3,0.4,1.2,0.9c-0.1,0.5-1,1-2.5,1c-1.4,0-2.4-0.7-2.1-0.6c0.2,0.1-1.5-0.9-2-0.3
				c-0.5,0.6-0.3,0.9,0.1,1.3c1.3,0.8,6.2,0.5,7.7-1.2c0,0,0.6-0.7-0.3-1.2c-0.9-0.5-3.4-0.9-4.4-0.9c-0.9-0.1-4.5,0-5-0.9
				c0,0-0.5-0.7,0.1-2.5c0.6-2,4.7-2.6,6.5-2.8c0,0,4.9-0.2,5.8,0.9C222.1,37.1,222.3,37.4,222.1,37.7 M208.2,49
				c-0.6,0.4-1.9,0.3-2.2-0.3c-0.3-0.4-0.5-2.2-0.4-5c0.1-2.8,0.1-6.3,0.8-6.9c0.6-0.5,1-0.1,1.3,0.3c0.3,0.3,0.6,0.8,0.6,1.7
				c0.1,0.9,0.3,5.5,0.3,5.5S208.8,48.5,208.2,49 M209.5,34c-1.7,0.6-2.9,0.4-3.9,0c-0.4,0.8-0.7,1-1,1.1c-0.5,0.1-0.9-0.8-1-1
				c-0.1-0.2-0.3-0.5-0.1-1.3c-1-0.9-1-2.1-0.9-2.9c0.3-0.9,1.9-4.5,6.9-4.9c0,0,2.5-0.2,2.9,1.1h0.1c0,0,2.4,0,2.3,2.2
				C214.8,30.4,212.2,33.1,209.5,34 M211.7,27.8c-1.6,0.3-4,2.4-5.2,4.2c1.8,0.3,4.9,0.2,6.4-2.7C212.8,29.3,213.5,27.5,211.7,27.8
				 M204.7,29.2c-0.5,0.9-0.5,1.4-0.3,1.7c0.6-0.9,1.6-2.3,3.2-3.4C206.4,27.6,205.4,28.1,204.7,29.2 M247.6,48.9
				c-1.2,2.9-2.1,5.8-2.7,10.2c0,0-0.1,0.9-0.9,0.6c-0.7-0.3-1.8-1.5-2-3.1c-0.3-2.1,0.7-5.7,2.6-9.8c-0.5-0.9-0.9-2.2-0.6-4.1
				c0,0,0.5-3.5,3.9-6.6c0,0,0.4-0.3,0.6-0.3c0.3,0.1,0.2,1.2-0.1,1.8c-0.2,0.5-1.7,3.2-1.7,3.2s-0.9,1.8-0.7,3.2
				c1.8-2.8,5.9-8.4,8.4-6.7c1.6,1.2,1.6,4.9,0.4,7C253.9,46.2,251.2,49.7,247.6,48.9 M252.9,40.2c-0.9,1-2.6,3-3.9,5.6
				c1.4-0.2,2.7-0.9,3.2-1.4c0.7-0.6,2.2-2.2,2-4.4C254.1,40.1,254,39,252.9,40.2 M196.6,50.3c-4.4,1.4-8.7,0.8-10.9,0.2
				c-0.1,0.9-0.2,1.4-0.3,1.5c-0.2,0.2-1.6,1-2.5-0.2c-0.3-0.6-0.5-1.6-0.6-2.6c-5.2-2.4-7.6-5.9-7.6-6.1c-0.1-0.1-1.3-1.4-0.1-2.9
				c1.1-1.4,4.7-2.8,7.9-3.3c0.1-2.8,0.4-5,0.9-6c0.4-1.2,1-0.2,1.6,0.6c0.4,0.6,0.7,3.1,0.7,5c2.1-0.1,3.4,0.1,5.7,0.5
				c3.1,0.5,5.2,2.1,5,4c-0.2,1.8-1.8,2.6-2.4,2.6c-0.6,0.1-1.6-0.4-1.6-0.4c-0.7-0.3-0.1-0.6,0.8-1c0.9-0.4,0.7-0.9,0.7-0.9
				c-0.3-1-4.4-1.7-8.4-1.7c0,2.2,0.1,6,0.2,8.1c2.8,0.5,4.9,0.4,4.9,0.4s10.2-0.3,10.5-6.9c0.3-6.7-10.2-13-17.9-15
				c-7.8-2-12.1-0.6-12.5-0.4c-0.4,0.2,0,0.3,0,0.3s0.4,0.1,1.2,0.3c0.5,0.4-0.1,0.9-0.1,0.9c-1.3,0.4-2.8,0.2-3.1-0.4
				c-0.3-0.6,0.2-1.2,0.8-2c0.5-0.9,1.1-0.8,1.1-0.8c9.6-3.4,21.2,2.7,21.2,2.7c10.9,5.6,12.8,12.2,12.6,14.8
				C204.2,44,203.3,48.3,196.6,50.3 M175.5,41.2c-1.1,0.5-0.3,1.4-0.3,1.4c2,2.2,4.5,3.6,6.9,4.5c0.3-3.8,0.3-5.2,0.3-7.2
				C178.6,40.2,176.5,40.8,175.5,41.2"/>
			<path id="rect3085" class="st1" d="M263.9,33.1c-0.4,0-0.8,0.3-0.8,0.8c0.2,2.2,0.3,4.2,0.5,6.1H258c-0.4,0-0.8,0.3-0.8,0.8v1.3
				c0,0.4,0.3,0.8,0.8,0.8h5.8c0.1,2,0.1,3.8-0.1,6c0,0.4,0.3,0.8,0.8,0.8h1.4c0.4,0,0.7-0.3,0.8-0.8c0.2-2,0.2-3.9,0.2-6h6.1
				c0.4,0,0.8-0.3,0.8-0.8v-1.3c0-0.4-0.3-0.8-0.8-0.8h-6.2c-0.2-2-0.3-4.1-0.8-6.1c-0.1-0.4-0.3-0.8-0.8-0.8H263.9z"/>
			
				<linearGradient id="path3050_00000017484639608335731890000011956996959941718456_" gradientUnits="userSpaceOnUse" x1="846.2224" y1="-906.7389" x2="466.4273" y2="-958.2498" gradientTransform="matrix(0.1845 0 0 0.1845 107.3219 186.3604)">
				<stop  offset="0" style="stop-color:#0CFFFF;stop-opacity:0.9961"/>
				<stop  offset="0.4745" style="stop-color:#0069E3;stop-opacity:0.6118"/>
				<stop  offset="1" style="stop-color:#0066E2;stop-opacity:0"/>
			</linearGradient>
			
				<path id="path3050" style="fill-rule:evenodd;clip-rule:evenodd;fill:url(#path3050_00000017484639608335731890000011956996959941718456_);" d="
				M225.5,0c-17.7,0-32.6,9-37.6,21.6l2.8,1.9c2.8-11,17.2-21,34.9-21c19.3,0,34.2,16.1,37.1,26.7h2.5C264,20.6,248.3,0,225.5,0
				L225.5,0z"/>
		</g>
		<path class="st3" d="M110.2,38c0.8,0.6,1.3,1.7,1.3,3.2v7.2h-4v-6.6c0-0.3-0.1-0.5-0.4-0.7c-0.2-0.2-0.5-0.4-0.7-0.4h-2.3
			c-0.3,0-0.5,0.1-0.7,0.4c-0.2,0.2-0.3,0.5-0.3,0.7v6.6H99V31.8h4v5.4c0.1,0,0.2-0.1,0.5-0.1c0.3-0.1,0.5-0.1,0.9-0.1h2.5
			C108.3,37,109.4,37.4,110.2,38z M122.7,37h4v7c0,1.3-0.4,2.4-1.1,3.2s-1.7,1.2-2.9,1.2h-3.9c-1.4,0-2.5-0.4-3.3-1.2
			c-0.8-0.7-1.3-1.8-1.3-3.3v-7h4v6.6c0,0.3,0.1,0.5,0.3,0.7s0.5,0.3,0.7,0.3h2.3c0.3,0,0.5-0.1,0.7-0.3s0.4-0.5,0.4-0.7L122.7,37
			L122.7,37z M129.7,31.8h4v16.5h-4V31.8z M149.1,37v7c0,1.3-0.4,2.4-1.1,3.2c-0.7,0.8-1.7,1.2-2.9,1.2h-3.9c-1.4,0-2.5-0.4-3.4-1.2
			c-0.8-0.7-1.3-1.8-1.3-3.3v-7h4v6.6c0,0.3,0.1,0.5,0.3,0.7s0.5,0.3,0.7,0.3h2.4c0.3,0,0.5-0.1,0.7-0.3c0.2-0.2,0.3-0.5,0.3-0.7
			v-6.6L149.1,37L149.1,37z"/>
		<g>
			<path class="st0" d="M334,35c2.5,0,3.2,1.5,3,3.1c0,0.3-0.1,0.8-0.1,0.8h-26.5c0,0,0.1-0.5,0.2-1.2c0.2-1.6,1.5-2.7,3.5-2.7H334z
				 M336.7,40.3c0,0-0.1,0.5-0.2,1.2c-0.2,1.2-1,2-2.6,2h-5.6l-0.6,5.1h-4.5l1-8.3C324.2,40.3,336.7,40.3,336.7,40.3z M297.9,35h12
				l-0.4,3.9h-12L297.9,35z M297.3,40.3h12l-0.4,3.2h-7.6l-0.2,1.5h7.5l-0.4,3.6h-12L297.3,40.3z M338.3,35h9.7
				c1.5,0,3.1,0.8,2.9,3.2c0,0.4-0.1,0.6-0.1,0.6h-13L338.3,35L338.3,35z M336.6,48.6l1-8.3h4.5l-1,8.3
				C341,48.6,336.6,48.6,336.6,48.6z M345.1,48.6l1-8.3h4.5l-1,8.3L345.1,48.6L345.1,48.6z M320,40.3c1.4,0,3.2,0.6,2.9,3.2
				c-0.1,0.4-0.3,2.6-0.5,3.2c-0.8,1.8-3,1.9-3.3,1.9c-0.4,0-9.9,0-9.9,0l0.4-3.6h8.7l0.2-1.5c0,0-5.2,0-6,0c-1.5,0-2.6-1-2.3-3.2
				C311.7,40.3,319.3,40.3,320,40.3L320,40.3z"/>
			<path class="st4" d="M360.6,40.4L361,37h-3.5l-0.3,3.4h-3.3l-0.4,3.4h3.3l-0.4,3.5h3.5l0.4-3.5h3.3l0.3-3.4H360.6z"/>
		</g>
	</g>
	<g>
		<path class="st0" d="M0,73.5h13.5c3.3,0,6.4,0.4,9.3,1.1c2.9,0.7,5.5,1.9,7.7,3.5c2.2,1.6,3.9,3.8,5.2,6.4
			c1.3,2.6,1.9,5.8,1.9,9.5c0,3.3-0.6,6.2-1.9,8.7c-1.3,2.5-2.9,4.6-5,6.3c-2.1,1.7-4.6,3-7.3,3.9c-2.8,0.9-5.7,1.3-8.7,1.3H0V73.5z
			 M9,106h4.7c2.1,0,4-0.2,5.8-0.6c1.8-0.4,3.3-1.1,4.6-2.1c1.3-1,2.3-2.3,3.1-3.9c0.8-1.6,1.1-3.5,1.1-5.9c0-2-0.4-3.7-1.1-5.2
			c-0.8-1.5-1.8-2.7-3-3.7c-1.3-1-2.8-1.7-4.5-2.2c-1.7-0.5-3.5-0.7-5.4-0.7H9V106z"/>
		<path class="st0" d="M43.7,73.5h9v40.9h-9V73.5z"/>
		<path class="st0" d="M81.1,83.5c-0.7-0.9-1.7-1.6-3-2c-1.3-0.4-2.4-0.7-3.5-0.7c-0.7,0-1.3,0.1-2,0.2c-0.7,0.2-1.3,0.4-2,0.7
			c-0.6,0.3-1.1,0.8-1.5,1.3c-0.4,0.5-0.6,1.2-0.6,2c0,1.2,0.5,2.2,1.4,2.8c0.9,0.7,2.1,1.2,3.5,1.7c1.4,0.5,2.9,0.9,4.5,1.4
			c1.6,0.5,3.1,1.1,4.5,2c1.4,0.8,2.6,2,3.5,3.4c0.9,1.4,1.4,3.3,1.4,5.7c0,2.3-0.4,4.3-1.3,5.9c-0.8,1.7-2,3.1-3.4,4.2
			c-1.4,1.1-3.1,1.9-5,2.5c-1.9,0.5-3.9,0.8-6,0.8c-2.7,0-5.1-0.4-7.4-1.2c-2.3-0.8-4.4-2.1-6.3-3.9l6.4-7c0.9,1.2,2.1,2.2,3.5,2.9
			c1.4,0.7,2.9,1,4.4,1c0.7,0,1.5-0.1,2.2-0.3c0.8-0.2,1.4-0.4,2-0.8c0.6-0.3,1.1-0.8,1.4-1.3c0.4-0.5,0.5-1.2,0.5-1.9
			c0-1.2-0.5-2.2-1.4-2.9c-0.9-0.7-2.1-1.3-3.5-1.8c-1.4-0.5-3-1-4.6-1.5c-1.7-0.5-3.2-1.2-4.6-2c-1.4-0.8-2.6-2-3.5-3.3
			c-0.9-1.4-1.4-3.2-1.4-5.5c0-2.2,0.4-4.1,1.3-5.8c0.9-1.7,2-3,3.5-4.2c1.4-1.1,3.1-2,5-2.5c1.9-0.6,3.8-0.8,5.8-0.8
			c2.3,0,4.5,0.3,6.7,1c2.2,0.7,4.1,1.8,5.8,3.3L81.1,83.5z"/>
		<path class="st0" d="M94,73.5h12.2l17.4,28.4h0.1V73.5h9v40.9h-11.8l-17.8-29.1H103v29.1h-9V73.5z"/>
		<path class="st0" d="M141.4,73.5h27.8v8.3h-18.8v7.6h17.7v8.3h-17.7v8.3h19.8v8.3h-28.8V73.5z"/>
		<path class="st0" d="M187.4,96.9l-15.3-23.4h11.2l8.7,15.3l9.2-15.3h10.7l-15.3,23.4v17.4h-9V96.9z"/>
		<path class="st0" d="M231.8,73.5h15.2c1.8,0,3.5,0.1,5.3,0.4c1.8,0.3,3.4,0.8,4.8,1.5c1.4,0.8,2.6,1.8,3.5,3.1
			c0.9,1.3,1.3,3.1,1.3,5.4c0,2.3-0.6,4.2-1.9,5.7c-1.3,1.5-3,2.6-5.1,3.3V93c1.3,0.2,2.6,0.6,3.7,1.1c1.1,0.6,2,1.3,2.8,2.1
			c0.8,0.9,1.4,1.9,1.8,3c0.4,1.2,0.6,2.4,0.6,3.7c0,2.2-0.5,4-1.4,5.4c-0.9,1.4-2.1,2.6-3.6,3.5c-1.5,0.9-3.1,1.5-4.9,1.9
			c-1.8,0.4-3.6,0.6-5.5,0.6h-16.7V73.5z M240.8,89.8h6.5c0.7,0,1.4-0.1,2-0.2c0.7-0.2,1.3-0.4,1.8-0.8c0.5-0.3,1-0.8,1.3-1.4
			c0.3-0.6,0.5-1.3,0.5-2.1c0-0.8-0.2-1.5-0.5-2.1c-0.4-0.6-0.8-1-1.4-1.3c-0.6-0.3-1.2-0.5-2-0.7c-0.7-0.1-1.4-0.2-2.1-0.2h-6.1
			V89.8z M240.8,106.7h8.1c0.7,0,1.4-0.1,2.1-0.2c0.7-0.2,1.4-0.4,1.9-0.8c0.6-0.4,1-0.9,1.4-1.5c0.4-0.6,0.5-1.4,0.5-2.3
			c0-1-0.2-1.7-0.7-2.3c-0.5-0.6-1.1-1-1.8-1.4c-0.7-0.3-1.5-0.5-2.4-0.6c-0.8-0.1-1.6-0.2-2.4-0.2h-6.8V106.7z"/>
		<path class="st0" d="M303.7,98.6c0,2.4-0.4,4.7-1.1,6.7c-0.7,2-1.8,3.8-3.3,5.3c-1.4,1.5-3.2,2.7-5.4,3.5
			c-2.2,0.8-4.6,1.3-7.4,1.3c-2.8,0-5.3-0.4-7.5-1.3c-2.2-0.8-4-2-5.4-3.5c-1.4-1.5-2.5-3.3-3.3-5.3c-0.7-2-1.1-4.3-1.1-6.7V73.5h9
			v24.8c0,1.3,0.2,2.4,0.6,3.5c0.4,1.1,1,2,1.7,2.8c0.7,0.8,1.6,1.4,2.6,1.8c1,0.4,2.1,0.7,3.3,0.7c1.2,0,2.3-0.2,3.3-0.7
			c1-0.4,1.9-1.1,2.6-1.8c0.7-0.8,1.3-1.7,1.7-2.8c0.4-1.1,0.6-2.3,0.6-3.5V73.5h9V98.6z"/>
		<path class="st0" d="M312,73.5h12.2l17.4,28.4h0.1V73.5h9v40.9h-11.8l-17.8-29.1H321v29.1h-9V73.5z"/>
		<path class="st0" d="M359,73.5h13.5c3.3,0,6.4,0.4,9.3,1.1c2.9,0.7,5.5,1.9,7.7,3.5c2.2,1.6,3.9,3.8,5.2,6.4
			c1.3,2.6,1.9,5.8,1.9,9.5c0,3.3-0.6,6.2-1.9,8.7c-1.3,2.5-2.9,4.6-5,6.3c-2.1,1.7-4.6,3-7.3,3.9c-2.8,0.9-5.7,1.3-8.7,1.3H359
			V73.5z M368,106h4.7c2.1,0,4-0.2,5.8-0.6c1.8-0.4,3.3-1.1,4.6-2.1c1.3-1,2.3-2.3,3.1-3.9c0.8-1.6,1.1-3.5,1.1-5.9
			c0-2-0.4-3.7-1.1-5.2c-0.8-1.5-1.8-2.7-3-3.7c-1.3-1-2.8-1.7-4.5-2.2c-1.7-0.5-3.5-0.7-5.4-0.7H368V106z"/>
		<path class="st0" d="M403.1,73.5h9V106h16.7v8.3h-25.7V73.5z"/>
		<path class="st0" d="M434.1,73.5h27.8v8.3h-18.8v7.6h17.7v8.3h-17.7v8.3h19.8v8.3h-28.8V73.5z"/>
	</g>
</g>
</svg>
