<?xml version="1.0" encoding="utf-8"?>
<!-- Generator: Adobe Illustrator 27.6.1, SVG Export Plug-In . SVG Version: 6.00 Build 0)  -->
<svg version="1.1" id="Livello_1" xmlns="http://www.w3.org/2000/svg" xmlns:xlink="http://www.w3.org/1999/xlink" x="0px" y="0px"
	 viewBox="0 0 205.4 70.1" style="enable-background:new 0 0 205.4 70.1;" xml:space="preserve">
<style type="text/css">
	.st0{fill:#FFFFFF;}
	.st1{fill-rule:evenodd;clip-rule:evenodd;fill:#FFFFFF;}
	.st2{fill-rule:evenodd;clip-rule:evenodd;fill:url(#path3050_00000140006132614564169960000005157910235314238849_);}
	.st3{fill:#1CE783;}
</style>
<g>
	<path id="path2" class="st0" d="M169,45.7c-1.7,0.4-6.3,0.6-6.3,0.6l-0.6,1.8c0,0,2.3-0.2,3.9,0c0,0,0.5,0,0.6,0.6
		c0,0.7,0,1.4,0,1.4s0,0.4-0.6,0.5s-4.9,0.3-4.9,0.3l-0.7,2.4c0,0-0.3,0.5,0.3,0.4c0.5-0.2,5-1,5.6-0.9c0.6,0.2,1.3,1,1.1,1.8
		c-0.2,0.9-4.7,3.9-7.4,3.7c0,0-1.4,0.1-2.6-1.9c-1.2-1.9,0.4-5.4,0.4-5.4s-0.7-1.7-0.2-2.3c0,0,0.3-0.3,1.2-0.3l1.1-2.3
		c0,0-1.3,0.1-2-0.9c-0.7-0.9-0.7-1.3-0.2-1.5c0.6-0.3,5.8-1.2,9.3-1.1c0,0,1.3-0.2,2.4,2.1C169.4,44.6,169.9,45.5,169,45.7
		 M155.6,54.6c-0.4,1.1-1.7,2.3-3.1,1.5c-1.5-0.7-3.9-5.6-3.9-5.6s-0.9-1.8-1.1-1.8c0,0-0.2-0.4-0.3,1.7c-0.1,2,0,5.9-0.8,6.5
		c-0.7,0.6-1.6,0.3-2.1-0.4c-0.4-0.7-0.6-2.4-0.4-5.4c0.3-3,0.9-6.1,1.8-7.1c0.9-1,1.6-0.3,1.9,0c0,0,1.1,1.1,3.1,4.2l0.3,0.6
		c0,0,1.7,3,1.9,2.9c0,0,0.1,0.2,0.3,0c0.2,0,0.1-1,0.1-1s-0.3-3.2-1.9-8.6c0,0-0.2-0.7-0.1-1.4c0.1-0.6,0.8-0.3,0.8-0.3
		s2.5,1.2,3.6,5.3C156.8,49.8,156,53.5,155.6,54.6 M143.6,44.2c-0.2,0.4-0.3,1-1.4,1.2c0,0-9.9,0.7-10.4,1.4c0,0-0.3,0.4,0.2,0.5
		c0.6,0.1,2.8,0.4,3.9,0.5c1.2,0,5,0,6.4,1.8c0,0,0.8,0.8,0.8,2.7c0,2-0.4,2.6-1.1,3.3c-0.8,0.7-7.5,3.7-11.8-1c0,0-2-2.3,0.7-4
		c0,0,1.9-1.2,6.8,0.2c0,0,1.5,0.5,1.4,1.1s-1.2,1.2-2.9,1.2c-1.6,0-2.8-0.8-2.5-0.7c0.2,0.1-1.7-1-2.3-0.3s-0.4,1.1,0.1,1.5
		c1.5,0.9,7.3,0.6,9-1.4c0,0,0.7-0.8-0.4-1.4c-1-0.6-4-1-5.2-1c-1.1-0.1-5.3,0-5.9-1.1c0,0-0.6-0.8,0.1-2.9c0.7-2.3,5.5-3.1,7.6-3.3
		c0,0,5.8-0.2,6.8,1C143.6,43.5,143.7,43.8,143.6,44.2 M127.2,57.4c-0.7,0.5-2.2,0.3-2.6-0.3c-0.4-0.5-0.6-2.6-0.5-5.9
		c0.1-3.3,0.1-7.4,0.9-8.1c0.7-0.6,1.2-0.1,1.5,0.4s0.7,0.9,0.7,2c0.1,1.1,0.3,6.5,0.3,6.5S127.9,56.9,127.2,57.4 M128.7,39.8
		c-2,0.7-3.4,0.5-4.6,0c-0.5,0.9-0.8,1.2-1.2,1.3c-0.6,0.1-1.1-0.9-1.2-1.2c-0.1-0.2-0.4-0.6-0.1-1.5c-1.2-1.1-1.2-2.5-1-3.4
		c0.3-1.1,2.2-5.3,8.1-5.8c0,0,2.9-0.2,3.4,1.4h0.1c0,0,2.8,0,2.7,2.6C135,35.6,131.9,38.8,128.7,39.8 M131.3,32.6
		c-1.9,0.3-4.7,2.8-6.1,4.9c2.1,0.4,5.8,0.2,7.5-3.2C132.7,34.3,133.5,32.2,131.3,32.6 M123.2,34.2c-0.6,1-0.6,1.6-0.3,2
		c0.7-1.1,1.9-2.7,3.8-4C125.2,32.3,124,32.9,123.2,34.2 M173.5,57.3c-1.4,3.4-2.5,6.8-3.2,12c0,0-0.1,1-1,0.7
		c-0.8-0.3-2.1-1.7-2.4-3.6c-0.3-2.5,0.8-6.7,3-11.5c-0.6-1.1-1.1-2.6-0.7-4.8c0,0,0.6-4.1,4.6-7.7c0,0,0.5-0.4,0.7-0.3
		c0.3,0.2,0.2,1.4-0.1,2.1c-0.2,0.6-2,3.8-2,3.8s-1.1,2.1-0.8,3.8c2.1-3.3,6.9-9.9,9.8-7.8c1.9,1.4,1.9,5.7,0.5,8.2
		C180.8,54.1,177.7,58.3,173.5,57.3 M179.6,47.1c-1.1,1.2-3,3.5-4.6,6.6c1.6-0.2,3.2-1.1,3.7-1.6c0.8-0.7,2.6-2.6,2.3-5.1
		C181.1,47,180.9,45.7,179.6,47.1 M113.5,59.1c-5.2,1.6-10.2,0.9-12.8,0.2c-0.1,1.1-0.2,1.6-0.4,1.8s-1.9,1.2-2.9-0.2
		c-0.4-0.7-0.6-1.9-0.7-3c-6.1-2.8-8.9-6.9-8.9-7.1c-0.1-0.2-1.5-1.6-0.1-3.4c1.3-1.6,5.5-3.3,9.3-3.9c0.1-3.3,0.5-5.9,1-7
		c0.5-1.4,1.2-0.2,1.9,0.8c0.5,0.7,0.8,3.6,0.8,5.9c2.5-0.1,4,0.1,6.7,0.6c3.6,0.6,6.1,2.5,5.9,4.7c-0.2,2.1-2.1,3-2.8,3
		c-0.7,0.1-1.9-0.5-1.9-0.5c-0.8-0.4-0.1-0.8,0.9-1.2c1.1-0.5,0.8-1.1,0.8-1.1c-0.4-1.2-5.1-2-9.8-2c0,2.6,0.1,7,0.2,9.5
		c3.3,0.6,5.7,0.5,5.7,0.5s12-0.3,12.3-8.1c0.4-7.8-12-15.2-21-17.6c-9.1-2.4-14.2-0.7-14.6-0.5c-0.5,0.2,0,0.3,0,0.3
		s0.5,0.1,1.4,0.4s0.2,0.8,0.2,0.8c-1.6,0.5-3.3,0.2-3.6-0.5s0.2-1.4,0.9-2.3c0.6-1,1.3-0.9,1.3-0.9c11.2-4,24.9,3.2,24.9,3.2
		c12.8,6.6,15,14.3,14.8,17.3C122.5,51.6,121.4,56.6,113.5,59.1 M88.8,48.3c-1.3,0.6-0.4,1.6-0.4,1.6c2.4,2.6,5.3,4.2,8.1,5.3
		c0.3-4.5,0.3-6.1,0.3-8.4C92.5,47.1,90,47.8,88.8,48.3"/>
	<path id="rect3085" class="st1" d="M194.1,38.8c-0.5,0-0.9,0.4-0.9,0.9c0.2,2.6,0.4,4.9,0.6,7.2h-6.7c-0.5,0-0.9,0.4-0.9,0.9v1.5
		c0,0.5,0.4,0.9,0.9,0.9h6.8c0.1,2.3,0.1,4.5-0.1,7c0,0.5,0.4,0.9,0.9,0.9h1.6c0.5,0,0.8-0.4,0.9-0.9c0.2-2.3,0.2-4.6,0.2-7h7.1
		c0.5,0,0.9-0.4,0.9-0.9v-1.5c0-0.5-0.4-0.9-0.9-0.9h-7.3c-0.2-2.4-0.4-4.8-0.9-7.2c-0.1-0.5-0.4-0.9-0.9-0.9H194.1z"/>
	
		<linearGradient id="path3050_00000132804616295145181540000013735726203702055833_" gradientUnits="userSpaceOnUse" x1="3073.7825" y1="98.5548" x2="2628.4434" y2="38.1543" gradientTransform="matrix(0.1845 0 0 0.1845 -375.1203 4.1654)">
		<stop  offset="0" style="stop-color:#0CFFFF;stop-opacity:0.9961"/>
		<stop  offset="0.4745" style="stop-color:#0069E3;stop-opacity:0.6118"/>
		<stop  offset="1" style="stop-color:#0066E2;stop-opacity:0"/>
	</linearGradient>
	
		<path id="path3050" style="fill-rule:evenodd;clip-rule:evenodd;fill:url(#path3050_00000132804616295145181540000013735726203702055833_);" d="
		M147.5,0c-20.7,0-38.2,10.6-44.1,25.3l3.3,2.2c3.3-12.9,20.2-24.6,41-24.6c22.6,0,40.1,18.9,43.6,31.3h2.9
		C192.7,24.1,174.2,0,147.5,0L147.5,0z"/>
	<path class="st3" d="M12.2,43.7c0.9,0.7,1.4,1.9,1.4,3.5v7.9H9.2v-7.3c0-0.3-0.1-0.6-0.4-0.8c-0.2-0.2-0.5-0.4-0.8-0.4H5.5
		c-0.3,0-0.6,0.1-0.8,0.4c-0.2,0.2-0.3,0.5-0.3,0.8v7.3H0V36.9h4.4v5.9c0.1,0,0.2-0.1,0.5-0.1c0.3-0.1,0.6-0.1,1-0.1h2.8
		C10.1,42.6,11.3,43,12.2,43.7z M26.1,42.6h4.4v7.7c0,1.4-0.4,2.6-1.2,3.5c-0.8,0.9-1.9,1.3-3.2,1.3h-4.3c-1.5,0-2.7-0.4-3.6-1.3
		c-0.9-0.8-1.4-2-1.4-3.6v-7.7h4.4v7.3c0,0.3,0.1,0.6,0.3,0.8c0.2,0.2,0.5,0.3,0.8,0.3h2.5c0.3,0,0.6-0.1,0.8-0.3
		c0.2-0.2,0.4-0.5,0.4-0.8L26.1,42.6L26.1,42.6z M33.8,36.9h4.4v18.2h-4.4V36.9z M55.2,42.6v7.7c0,1.4-0.4,2.6-1.2,3.5
		c-0.8,0.9-1.9,1.3-3.2,1.3h-4.3c-1.5,0-2.7-0.4-3.7-1.3c-0.9-0.8-1.4-2-1.4-3.6v-7.7h4.4v7.3c0,0.3,0.1,0.6,0.3,0.8
		c0.2,0.2,0.5,0.3,0.8,0.3h2.6c0.3,0,0.6-0.1,0.8-0.3c0.2-0.2,0.3-0.5,0.3-0.8v-7.3L55.2,42.6L55.2,42.6z"/>
</g>
</svg>
