<?xml version="1.0" encoding="utf-8"?>
<!-- Generator: Adobe Illustrator 27.6.1, SVG Export Plug-In . SVG Version: 6.00 Build 0)  -->
<svg version="1.1" id="Livello_1" xmlns="http://www.w3.org/2000/svg" xmlns:xlink="http://www.w3.org/1999/xlink" x="0px" y="0px"
	 viewBox="0 0 308 70" style="enable-background:new 0 0 308 70;" xml:space="preserve">
<style type="text/css">
	.st0{fill:#FFFFFF;}
	.st1{fill-rule:evenodd;clip-rule:evenodd;fill:#FFFFFF;}
	.st2{fill-rule:evenodd;clip-rule:evenodd;fill:url(#path3050_00000049904218674389180680000000114715925022747804_);}
	.st3{fill:#1CE783;}
	.st4{fill-rule:evenodd;clip-rule:evenodd;fill:#F9B300;}
</style>
<path id="path2" class="st0" d="M169.6,45.7c-1.7,0.4-6.3,0.6-6.3,0.6l-0.6,1.8c0,0,2.3-0.2,3.9,0c0,0,0.5,0,0.6,0.6
	c0,0.7,0,1.4,0,1.4s0,0.4-0.6,0.5c-0.6,0.1-4.9,0.3-4.9,0.3l-0.7,2.4c0,0-0.3,0.5,0.3,0.4c0.5-0.1,5-1,5.6-0.9
	c0.6,0.1,1.3,1,1.1,1.8c-0.2,0.9-4.7,3.9-7.4,3.7c0,0-1.4,0.1-2.6-1.9c-1.2-1.9,0.4-5.4,0.4-5.4s-0.7-1.7-0.2-2.3
	c0,0,0.3-0.3,1.2-0.3l1.1-2.3c0,0-1.3,0.1-2-0.9c-0.7-0.9-0.7-1.3-0.2-1.5c0.6-0.3,5.8-1.2,9.3-1.1c0,0,1.3-0.2,2.4,2.1
	C170,44.6,170.5,45.5,169.6,45.7 M156.1,54.6c-0.4,1.1-1.7,2.3-3.1,1.5c-1.5-0.7-3.9-5.6-3.9-5.6s-0.9-1.8-1.1-1.8
	c0,0-0.2-0.4-0.3,1.7c-0.1,2,0,5.9-0.8,6.5c-0.7,0.6-1.6,0.3-2.1-0.4c-0.4-0.7-0.6-2.4-0.4-5.4c0.3-3,0.9-6.1,1.8-7.1
	c0.9-1,1.6-0.3,1.9,0c0,0,1.1,1.1,3.1,4.2l0.3,0.6c0,0,1.7,3,1.9,2.9c0,0,0.1,0.2,0.3,0c0.2,0,0.1-1,0.1-1s-0.3-3.2-1.9-8.6
	c0,0-0.2-0.7-0.1-1.4c0.1-0.6,0.8-0.3,0.8-0.3s2.5,1.2,3.6,5.3C157.4,49.8,156.6,53.5,156.1,54.6 M144.1,44.2
	c-0.2,0.4-0.3,1-1.4,1.2c0,0-9.9,0.7-10.4,1.4c0,0-0.3,0.4,0.2,0.5c0.6,0.1,2.8,0.4,3.9,0.5c1.2,0,5,0,6.4,1.8c0,0,0.8,0.8,0.8,2.7
	c0,2-0.4,2.6-1.1,3.3c-0.8,0.7-7.5,3.7-11.8-1c0,0-2-2.3,0.7-4c0,0,1.9-1.2,6.8,0.2c0,0,1.5,0.5,1.4,1.1c-0.1,0.6-1.2,1.2-2.9,1.2
	c-1.6,0-2.8-0.8-2.5-0.7c0.2,0.1-1.7-1-2.3-0.3c-0.6,0.7-0.4,1.1,0.1,1.5c1.5,0.9,7.3,0.6,9-1.4c0,0,0.7-0.8-0.4-1.4
	c-1-0.6-4-1-5.2-1c-1.1-0.1-5.3,0-5.9-1.1c0,0-0.6-0.8,0.1-2.9c0.7-2.3,5.5-3.1,7.6-3.3c0,0,5.8-0.2,6.8,1
	C144.1,43.5,144.3,43.8,144.1,44.2 M127.8,57.4c-0.7,0.5-2.2,0.3-2.6-0.3c-0.4-0.5-0.6-2.6-0.5-5.9c0.1-3.3,0.1-7.4,0.9-8.1
	c0.7-0.6,1.2-0.1,1.5,0.4c0.3,0.4,0.7,0.9,0.7,2c0.1,1.1,0.3,6.5,0.3,6.5S128.5,56.9,127.8,57.4 M129.3,39.8c-2,0.7-3.4,0.5-4.6,0
	c-0.5,0.9-0.8,1.2-1.2,1.3c-0.6,0.1-1.1-0.9-1.2-1.2c-0.1-0.2-0.4-0.6-0.1-1.5c-1.2-1.1-1.2-2.5-1-3.4c0.3-1.1,2.2-5.3,8.1-5.8
	c0,0,2.9-0.2,3.4,1.3h0.1c0,0,2.8,0,2.7,2.6C135.5,35.6,132.4,38.8,129.3,39.8 M131.9,32.6c-1.9,0.3-4.7,2.8-6.1,4.9
	c2.1,0.4,5.8,0.2,7.5-3.2C133.2,34.3,134,32.2,131.9,32.6 M123.7,34.2c-0.6,1-0.6,1.6-0.3,2c0.7-1.1,1.9-2.7,3.8-4
	C125.7,32.3,124.5,32.9,123.7,34.2 M174,57.3c-1.4,3.4-2.5,6.8-3.2,12c0,0-0.1,1-1,0.7c-0.8-0.3-2.1-1.7-2.4-3.6
	c-0.3-2.5,0.8-6.7,3-11.5c-0.6-1.1-1.1-2.6-0.7-4.8c0,0,0.6-4.1,4.6-7.7c0,0,0.5-0.4,0.7-0.3c0.3,0.1,0.2,1.4-0.1,2.1
	c-0.2,0.6-2,3.8-2,3.8s-1.1,2.1-0.8,3.8c2.1-3.3,6.9-9.9,9.8-7.8c1.9,1.4,1.9,5.7,0.5,8.2C181.3,54.1,178.2,58.3,174,57.3
	 M180.2,47.1c-1.1,1.2-3,3.5-4.6,6.6c1.6-0.2,3.2-1.1,3.7-1.6c0.8-0.7,2.6-2.6,2.3-5.1C181.6,47,181.4,45.7,180.2,47.1 M114.1,59
	c-5.2,1.6-10.2,0.9-12.8,0.2c-0.1,1.1-0.2,1.6-0.4,1.8c-0.2,0.2-1.9,1.2-2.9-0.2c-0.4-0.7-0.6-1.9-0.7-3c-6.1-2.8-8.9-6.9-8.9-7.1
	c-0.1-0.1-1.5-1.6-0.1-3.4c1.3-1.6,5.5-3.3,9.3-3.9c0.1-3.3,0.5-5.9,1-7c0.5-1.4,1.2-0.2,1.9,0.7c0.5,0.7,0.8,3.6,0.8,5.9
	c2.5-0.1,4,0.1,6.7,0.6c3.6,0.6,6.1,2.5,5.9,4.7c-0.2,2.1-2.1,3-2.8,3c-0.7,0.1-1.9-0.5-1.9-0.5c-0.8-0.4-0.1-0.7,0.9-1.2
	c1.1-0.5,0.8-1.1,0.8-1.1c-0.4-1.2-5.1-2-9.8-2c0,2.6,0.1,7,0.2,9.5c3.3,0.6,5.7,0.5,5.7,0.5s12-0.3,12.3-8.1
	c0.4-7.8-12-15.2-21-17.6c-9.1-2.4-14.2-0.7-14.6-0.5c-0.5,0.2,0,0.3,0,0.3s0.5,0.1,1.4,0.4C85.7,31.5,85,32,85,32
	c-1.5,0.5-3.3,0.2-3.6-0.5c-0.3-0.7,0.2-1.4,0.9-2.3c0.6-1,1.3-0.9,1.3-0.9c11.2-4,24.9,3.2,24.9,3.2c12.8,6.6,15,14.3,14.8,17.3
	C123.1,51.6,122,56.6,114.1,59 M89.4,48.3c-1.3,0.6-0.4,1.6-0.4,1.6c2.4,2.6,5.3,4.2,8.1,5.3c0.3-4.5,0.3-6.1,0.3-8.4
	C93.1,47.1,90.6,47.8,89.4,48.3"/>
<path id="rect3085" class="st1" d="M193.1,38.8c-0.5,0-0.9,0.4-0.9,0.9c0.2,2.6,0.4,4.9,0.6,7.2h-6.7c-0.5,0-0.9,0.4-0.9,0.9v1.5
	c0,0.5,0.4,0.9,0.9,0.9h6.8c0.1,2.3,0.1,4.5-0.1,7c0,0.5,0.4,0.9,0.9,0.9h1.6c0.5,0,0.8-0.4,0.9-0.9c0.2-2.3,0.2-4.6,0.2-7h7.1
	c0.5,0,0.9-0.4,0.9-0.9v-1.5c0-0.5-0.4-0.9-0.9-0.9h-7.3c-0.2-2.4-0.4-4.8-0.9-7.2c-0.1-0.5-0.4-0.9-0.9-0.9H193.1z"/>
<linearGradient id="path3050_00000061472140219528764920000000795348395298060165_" gradientUnits="userSpaceOnUse" x1="2868.0371" y1="223.8396" x2="2422.8181" y2="284.2238" gradientTransform="matrix(0.1845 0 0 -0.1845 -336.6287 63.6449)">
	<stop  offset="0" style="stop-color:#0CFFFF;stop-opacity:0.9961"/>
	<stop  offset="0.4745" style="stop-color:#0069E3;stop-opacity:0.6118"/>
	<stop  offset="1" style="stop-color:#0066E2;stop-opacity:0"/>
</linearGradient>
<path id="path3050" style="fill-rule:evenodd;clip-rule:evenodd;fill:url(#path3050_00000061472140219528764920000000795348395298060165_);" d="
	M148,0c-20.7,0-38.2,10.6-44.1,25.3l3.3,2.2c3.3-12.9,20.2-24.6,40.9-24.6c22.6,0,40.1,18.9,43.5,31.3l2.9,0
	C193.2,24.1,174.8,0,148,0L148,0z"/>
<path class="st3" d="M12.8,43.7c0.9,0.7,1.4,1.9,1.4,3.5v7.9H9.8v-7.3c0-0.3-0.1-0.6-0.4-0.8c-0.2-0.2-0.5-0.4-0.8-0.4H6.1
	c-0.3,0-0.6,0.1-0.8,0.4c-0.2,0.2-0.3,0.5-0.3,0.8v7.3H0.5V36.9h4.4v5.9c0.1,0,0.2-0.1,0.5-0.1c0.3-0.1,0.6-0.1,1-0.1h2.8
	C10.7,42.6,11.9,43,12.8,43.7z M26.6,42.6H31v7.7c0,1.4-0.4,2.6-1.2,3.5c-0.8,0.9-1.9,1.3-3.2,1.3h-4.3c-1.5,0-2.7-0.4-3.6-1.3
	c-0.9-0.8-1.4-2-1.4-3.6v-7.7h4.4v7.3c0,0.3,0.1,0.6,0.3,0.8c0.2,0.2,0.5,0.3,0.8,0.3h2.5c0.3,0,0.6-0.1,0.8-0.3
	c0.2-0.2,0.4-0.5,0.4-0.8V42.6z M34.3,36.9h4.4v18.2h-4.4V36.9z M55.7,42.6v7.7c0,1.4-0.4,2.6-1.2,3.5c-0.8,0.9-1.9,1.3-3.2,1.3
	h-4.3c-1.5,0-2.7-0.4-3.7-1.3c-0.9-0.8-1.4-2-1.4-3.6v-7.7h4.4v7.3c0,0.3,0.1,0.6,0.3,0.8c0.2,0.2,0.5,0.3,0.8,0.3h2.6
	c0.3,0,0.6-0.1,0.8-0.3c0.2-0.2,0.3-0.5,0.3-0.8v-7.3H55.7z"/>
<g>
	<path class="st0" d="M272.4,40.6c3,0,3.8,1.8,3.6,3.7c0,0.4-0.1,0.9-0.1,0.9h-31.5c0,0,0.1-0.6,0.2-1.4c0.2-1.9,1.8-3.2,4.2-3.2
		H272.4z M275.6,46.9c0,0-0.1,0.6-0.2,1.4c-0.2,1.4-1.2,2.4-3.1,2.4h-6.7l-0.7,6.1h-5.3l1.2-9.9C260.7,46.9,275.6,46.9,275.6,46.9z
		 M229.5,40.6h14.3l-0.5,4.6H229L229.5,40.6z M228.7,46.9H243l-0.5,3.8h-9l-0.2,1.8h8.9l-0.5,4.3h-14.3L228.7,46.9z M277.5,40.6
		h11.6c1.8,0,3.7,0.9,3.4,3.8c0,0.5-0.1,0.7-0.1,0.7h-15.5L277.5,40.6L277.5,40.6z M275.5,56.8l1.2-9.9h5.3l-1.2,9.9
		C280.8,56.8,275.5,56.8,275.5,56.8z M285.6,56.8l1.2-9.9h5.4l-1.2,9.9H285.6L285.6,56.8z M255.8,46.9c1.7,0,3.8,0.7,3.4,3.8
		c-0.1,0.5-0.3,3.1-0.6,3.8c-0.9,2.2-3.6,2.3-3.9,2.3c-0.5,0-11.8,0-11.8,0l0.5-4.3h10.4l0.2-1.8c0,0-6.2,0-7.2,0
		c-1.8,0-3.1-1.2-2.7-3.8C245.9,46.9,254.9,46.9,255.8,46.9L255.8,46.9z"/>
	<path class="st4" d="M304.1,47l0.5-4.1h-4.2L300,47h-3.9l-0.5,4.1h3.9l-0.5,4.2h4.2l0.5-4.2h3.9L308,47H304.1z"/>
</g>
</svg>
