<?xml version="1.0" encoding="utf-8"?>
<!-- Generator: Adobe Illustrator 27.6.1, SVG Export Plug-In . SVG Version: 6.00 Build 0)  -->
<svg version="1.1" id="Livello_1" xmlns="http://www.w3.org/2000/svg" xmlns:xlink="http://www.w3.org/1999/xlink" x="0px" y="0px"
	 viewBox="0 0 80 45.5" style="enable-background:new 0 0 80 45.5;" xml:space="preserve">
<style type="text/css">
	.st0{fill:#FFFFFF;}
	.st1{fill-rule:evenodd;clip-rule:evenodd;fill:#FFFFFF;}
	.st2{fill-rule:evenodd;clip-rule:evenodd;fill:url(#path3050_00000102514090857671982940000016885244848172318849_);}
</style>
<g>
	<path id="path2" class="st0" d="M57.4,29.7c-1.1,0.3-4.1,0.4-4.1,0.4l-0.4,1.2c0,0,1.5-0.1,2.5,0c0,0,0.3,0,0.4,0.4
		c0,0.5,0,0.9,0,0.9s0,0.3-0.4,0.3c-0.4,0.1-3.2,0.2-3.2,0.2l-0.5,1.6c0,0-0.2,0.3,0.2,0.3c0.3-0.1,3.2-0.6,3.6-0.6
		c0.4,0.1,0.8,0.6,0.7,1.2c-0.1,0.6-3.1,2.5-4.8,2.4c0,0-0.9,0.1-1.7-1.2c-0.8-1.2,0.3-3.5,0.3-3.5S49.6,32,50,31.7
		c0,0,0.2-0.2,0.8-0.2l0.7-1.5c0,0-0.8,0.1-1.3-0.6c-0.5-0.6-0.5-0.8-0.1-1c0.4-0.2,3.8-0.8,6-0.7c0,0,0.8-0.1,1.6,1.4
		C57.6,29,58,29.6,57.4,29.7 M48.6,35.5c-0.3,0.7-1.1,1.5-2,1c-1-0.5-2.5-3.6-2.5-3.6s-0.6-1.2-0.7-1.2c0,0-0.1-0.3-0.2,1.1
		c-0.1,1.3,0,3.8-0.5,4.2c-0.5,0.4-1,0.2-1.4-0.3c-0.3-0.5-0.4-1.6-0.3-3.5c0.2-1.9,0.6-4,1.2-4.6c0.6-0.6,1-0.2,1.2,0
		c0,0,0.7,0.7,2,2.7l0.2,0.4c0,0,1.1,1.9,1.2,1.9c0,0,0.1,0.1,0.2,0c0.1,0,0.1-0.6,0.1-0.6s-0.2-2.1-1.2-5.6c0,0-0.1-0.5-0.1-0.9
		c0.1-0.4,0.5-0.2,0.5-0.2s1.6,0.8,2.3,3.4C49.5,32.4,48.9,34.8,48.6,35.5 M40.8,28.7c-0.1,0.3-0.2,0.6-0.9,0.8c0,0-6.4,0.5-6.8,0.9
		c0,0-0.2,0.3,0.1,0.3c0.4,0.1,1.8,0.3,2.5,0.3c0.8,0,3.2,0,4.2,1.2c0,0,0.5,0.5,0.5,1.8c0,1.3-0.3,1.7-0.7,2.1
		c-0.5,0.5-4.9,2.4-7.7-0.6c0,0-1.3-1.5,0.5-2.6c0,0,1.2-0.8,4.4,0.1c0,0,1,0.3,0.9,0.7c-0.1,0.4-0.8,0.8-1.9,0.8
		c-1,0-1.8-0.5-1.6-0.5c0.1,0.1-1.1-0.6-1.5-0.2c-0.4,0.5-0.3,0.7,0.1,1c1,0.6,4.7,0.4,5.8-0.9c0,0,0.5-0.5-0.3-0.9
		c-0.6-0.4-2.6-0.6-3.4-0.6c-0.7-0.1-3.4,0-3.8-0.7c0,0-0.4-0.5,0.1-1.9c0.5-1.5,3.6-2,4.9-2.1c0,0,3.8-0.1,4.4,0.6
		C40.8,28.3,40.9,28.5,40.8,28.7 M30.2,37.3c-0.5,0.3-1.4,0.2-1.7-0.2c-0.3-0.3-0.4-1.7-0.3-3.8s0.1-4.8,0.6-5.3
		c0.5-0.4,0.8-0.1,1,0.3c0.2,0.3,0.5,0.6,0.5,1.3c0.1,0.7,0.2,4.2,0.2,4.2S30.7,37,30.2,37.3 M31.2,25.9c-1.3,0.5-2.2,0.3-3,0
		c-0.3,0.6-0.5,0.8-0.8,0.8c-0.4,0.1-0.7-0.6-0.8-0.8c-0.1-0.1-0.3-0.4-0.1-1c-0.8-0.7-0.8-1.6-0.6-2.2c0.2-0.7,1.4-3.4,5.3-3.8
		c0,0,1.9-0.1,2.2,0.8h0.1c0,0,1.8,0,1.8,1.7C35.2,23.1,33.2,25.2,31.2,25.9 M32.9,21.2c-1.2,0.2-3.1,1.8-4,3.2
		c1.4,0.3,3.8,0.1,4.9-2.1C33.7,22.3,34.2,20.9,32.9,21.2 M27.6,22.2c-0.4,0.6-0.4,1-0.2,1.3c0.5-0.7,1.2-1.8,2.5-2.6
		C28.8,21,28.1,21.4,27.6,22.2 M60.2,37.2c-0.9,2.2-1.6,4.4-2.1,7.8c0,0-0.1,0.6-0.6,0.5c-0.5-0.2-1.4-1.1-1.6-2.3
		c-0.2-1.6,0.5-4.4,1.9-7.5c-0.4-0.7-0.7-1.7-0.5-3.1c0,0,0.4-2.7,3-5c0,0,0.3-0.3,0.5-0.2c0.2,0.1,0.1,0.9-0.1,1.4
		c-0.1,0.4-1.3,2.5-1.3,2.5s-0.7,1.4-0.5,2.5c1.4-2.1,4.5-6.4,6.4-5.1c1.2,0.9,1.2,3.7,0.3,5.3C65,35.2,63,37.9,60.2,37.2
		 M64.3,30.6c-0.7,0.8-1.9,2.3-3,4.3c1-0.1,2.1-0.7,2.4-1c0.5-0.5,1.7-1.7,1.5-3.3C65.2,30.5,65.1,29.7,64.3,30.6 M21.3,38.3
		c-3.4,1-6.6,0.6-8.3,0.1c-0.1,0.7-0.1,1-0.3,1.2c-0.1,0.1-1.2,0.8-1.9-0.1c-0.3-0.5-0.4-1.2-0.5-1.9c-4-1.8-5.8-4.5-5.8-4.6
		c-0.1-0.1-1-1-0.1-2.2c0.8-1,3.6-2.1,6-2.5c0.1-2.1,0.3-3.8,0.6-4.5c0.3-0.9,0.8-0.1,1.2,0.5c0.3,0.5,0.5,2.3,0.5,3.8
		c1.6-0.1,2.6,0.1,4.4,0.4c2.3,0.4,4,1.6,3.8,3.1c-0.1,1.4-1.4,1.9-1.8,1.9c-0.5,0.1-1.2-0.3-1.2-0.3c-0.5-0.3-0.1-0.5,0.6-0.8
		c0.7-0.3,0.5-0.7,0.5-0.7c-0.3-0.8-3.3-1.3-6.4-1.3c0,1.7,0.1,4.5,0.1,6.2c2.1,0.4,3.7,0.3,3.7,0.3s7.8-0.2,8-5.3
		C25,26.4,16.9,21.6,11,20c-5.9-1.6-9.2-0.5-9.5-0.3c-0.3,0.1,0,0.2,0,0.2s0.3,0.1,0.9,0.3c0.4,0.3-0.1,0.6-0.1,0.6
		c-1,0.3-2.1,0.1-2.3-0.3C-0.1,20,0.2,19.6,0.6,19c0.4-0.6,0.8-0.6,0.8-0.6c7.3-2.6,16.2,2.1,16.2,2.1c8.3,4.3,9.7,9.3,9.6,11.2
		C27.2,33.5,26.4,36.8,21.3,38.3 M5.3,31.4c-0.8,0.4-0.3,1-0.3,1c1.6,1.7,3.4,2.7,5.3,3.4c0.2-2.9,0.2-4,0.2-5.5
		C7.7,30.6,6,31.1,5.3,31.4"/>
	<path id="rect3085" class="st1" d="M72.7,25.2c-0.3,0-0.6,0.3-0.6,0.6c0.1,1.7,0.3,3.2,0.4,4.7h-4.4c-0.3,0-0.6,0.3-0.6,0.6v1
		c0,0.3,0.3,0.6,0.6,0.6h4.4c0.1,1.5,0.1,2.9-0.1,4.5c0,0.3,0.3,0.6,0.6,0.6h1c0.3,0,0.5-0.3,0.6-0.6c0.1-1.5,0.1-3,0.1-4.5h4.6
		c0.3,0,0.6-0.3,0.6-0.6v-1c0-0.3-0.3-0.6-0.6-0.6h-4.7c-0.1-1.6-0.3-3.1-0.6-4.7c-0.1-0.3-0.3-0.6-0.6-0.6H72.7z"/>
	
		<linearGradient id="path3050_00000140707627264321626310000005912799932820971702_" gradientUnits="userSpaceOnUse" x1="4372.6611" y1="3095.6853" x2="4083.2966" y2="3056.4395" gradientTransform="matrix(0.1845 0 0 0.1845 -734.4749 -556.6268)">
		<stop  offset="0" style="stop-color:#0CFFFF;stop-opacity:0.9961"/>
		<stop  offset="0.4745" style="stop-color:#0069E3;stop-opacity:0.6118"/>
		<stop  offset="1" style="stop-color:#0066E2;stop-opacity:0"/>
	</linearGradient>
	
		<path id="path3050" style="fill-rule:evenodd;clip-rule:evenodd;fill:url(#path3050_00000140707627264321626310000005912799932820971702_);" d="
		M43.3,0C29.9,0,18.5,6.9,14.7,16.4l2.1,1.4C19,9.5,30,1.9,43.4,1.9c14.7,0,26.1,12.3,28.3,20.3h1.9C72.7,15.7,60.8,0,43.3,0L43.3,0
		z"/>
</g>
</svg>
